<?xml version="1.0" encoding="UTF-8"?>
<svg version="1.1" xmlns="http://www.w3.org/2000/svg" width="849" height="128">
<path d="M0 0 C2.3125 1.5625 2.3125 1.5625 4 3 C3.67 3.99 3.34 4.98 3 6 C2.02417969 6.0721875 1.04835937 6.144375 0.04296875 6.21875 C-4.75581157 6.9130724 -8.53057785 9.10548829 -12.6875 11.5 C-13.47842041 11.94851318 -14.26934082 12.39702637 -15.08422852 12.85913086 C-21.81777368 16.75021723 -27.95723538 21.09459481 -34 26 C-34.8971875 26.71800781 -35.794375 27.43601562 -36.71875 28.17578125 C-40.67355642 31.37485599 -44.57618731 34.63033062 -48.4375 37.94140625 C-49.01959229 38.43914551 -49.60168457 38.93688477 -50.20141602 39.44970703 C-51.33291372 40.41938036 -52.46118046 41.39284059 -53.58569336 42.37060547 C-56.27646243 44.67937506 -58.80589686 46.48076301 -62 48 C-62.70151152 49.3153341 -63.36525925 50.65117592 -64 52 C-65.0828125 52.8353125 -65.0828125 52.8353125 -66.1875 53.6875 C-68.39055729 56.0187426 -68.39055729 56.0187426 -68.0625 59.875 C-66.09944827 71.82998504 -60.2559707 89.01276896 -51.3125 97.625 C-50 99 -50 99 -50 102 C-49.0409375 102.185625 -49.0409375 102.185625 -48.0625 102.375 C-47.381875 102.58125 -46.70125 102.7875 -46 103 C-45.67 103.66 -45.34 104.32 -45 105 C-42.68324244 106.39879702 -40.37858044 107.71882202 -38 109 C-37.29875 109.4125 -36.5975 109.825 -35.875 110.25 C-33.27954484 111.28818206 -31.76581262 111.55316252 -29 111 C-24.58019168 106.19020859 -23.46447785 100.2351254 -22 94 C-23.8871875 93.443125 -23.8871875 93.443125 -25.8125 92.875 C-28.90341197 91.68576614 -29.91822662 91.10159723 -32.0625 88.4375 C-34.14802838 80.7905626 -32.26421554 74.22653955 -28.51953125 67.40625 C-26.07418489 63.53392774 -23.58116 59.90279049 -20 57 C-16.6875 56.375 -16.6875 56.375 -14 57 C-12 59 -12 59 -12 62 C-12.86238281 62.29970703 -12.86238281 62.29970703 -13.7421875 62.60546875 C-16.85999042 64.53117055 -18.32152044 67.2232698 -20.125 70.3125 C-20.64513672 71.16618164 -20.64513672 71.16618164 -21.17578125 72.03710938 C-24.85685868 78.13524627 -24.85685868 78.13524627 -26 85 C-20.38906702 84.49189481 -16.2748571 82.9856472 -11.3125 80.375 C-10.61479492 80.01672119 -9.91708984 79.65844238 -9.19824219 79.28930664 C-4.0023398 76.59436368 1.08717901 73.73637608 6.10546875 70.72265625 C8.14921285 69.50633891 10.21713604 68.33021508 12.30078125 67.18359375 C13.37714844 66.58675781 14.45351562 65.98992187 15.5625 65.375 C16.53316406 64.84648438 17.50382813 64.31796875 18.50390625 63.7734375 C21.28552284 61.79714027 22.32582893 59.92498854 24 57 C29.37448206 54.68159597 33.41899265 54.81060499 39 56 C41.5 57.375 41.5 57.375 43 59 C43 59.99 43 60.98 43 62 C41.96875 62.144375 40.9375 62.28875 39.875 62.4375 C36.57450187 62.91660457 33.28731659 63.43875083 30 64 C28.67493998 66.91622707 28.67493998 66.91622707 29.92578125 69.41015625 C30.38339844 70.28542969 30.84101563 71.16070312 31.3125 72.0625 C31.98732422 73.37927734 31.98732422 73.37927734 32.67578125 74.72265625 C33.92649961 77.09705623 33.92649961 77.09705623 36 79 C37.01578125 78.40832031 38.0315625 77.81664063 39.078125 77.20703125 C62.01761243 63.97927414 62.01761243 63.97927414 71 65 C71.33 65.99 71.66 66.98 72 68 C71.0925 68.350625 70.185 68.70125 69.25 69.0625 C62.62171785 73.01397589 60.62055247 81.07226288 58 88 C58.82242188 87.21496094 59.64484375 86.42992188 60.4921875 85.62109375 C89.02805503 58.64954185 89.02805503 58.64954185 102.0625 58.75 C106 59 106 59 109 61 C109.64413921 64.57855116 109.55931532 66.97911379 107.79296875 70.203125 C103.81638659 75.80054191 103.81638659 75.80054191 100.9375 76.50390625 C98.87146058 76.82205849 98.87146058 76.82205849 97.734375 78.62890625 C97.40953125 79.26699219 97.0846875 79.90507813 96.75 80.5625 C96.1725 81.696875 95.595 82.83125 95 84 C105.4166222 80.85078864 114.01391855 73.6503704 122.73828125 67.33203125 C124.83897315 65.81324157 126.95169951 64.37466553 129.12109375 62.94921875 C131.83769614 61.10989095 134.26403486 59.13559421 136.75 57 C141.68167784 53.03982562 147.51660324 48.56689906 154.18359375 49.2109375 C156.125 49.75 156.125 49.75 159 51 C159 52.32 159 53.64 159 55 C157.96875 55.0825 156.9375 55.165 155.875 55.25 C151.57204022 56.08283093 149.4555513 57.35319475 146 60 C145.45988281 60.40734375 144.91976563 60.8146875 144.36328125 61.234375 C142.08408183 63.02241522 140.24587086 64.50825829 138.9375 67.125 C137.60919233 69.78161534 135.51819845 70.54209563 133 72 C133 72.66 133 73.32 133 74 C133.48766846 73.67314209 133.97533691 73.34628418 134.4777832 73.00952148 C138.40702969 70.37783797 142.34182448 67.75506961 146.28515625 65.14453125 C149.03004665 63.32498301 151.75121091 61.48458673 154.43359375 59.57421875 C155.36300781 58.93097656 156.29242188 58.28773437 157.25 57.625 C158.03890625 57.06039062 158.8278125 56.49578125 159.640625 55.9140625 C162.96177215 54.62739291 164.81971319 55.63045453 168 57 C169.29777404 62.11338516 168.58091094 65.05050555 166.5625 69.875 C165.85287109 71.60363281 165.85287109 71.60363281 165.12890625 73.3671875 C164.75636719 74.23601562 164.38382812 75.10484375 164 76 C172.08872183 74.79457293 179.18190272 72.11311776 186.6875 68.9375 C199.70775379 63.44108736 199.70775379 63.44108736 206 63 C206.66 61.02 207.32 59.04 208 57 C210.375 56.875 210.375 56.875 213 57 C213.66 57.66 214.32 58.32 215 59 C214.59450778 62.39138945 212.98161232 65.2409606 211.4375 68.25 C210.98246094 69.14203125 210.52742188 70.0340625 210.05859375 70.953125 C209.70925781 71.62859375 209.35992187 72.3040625 209 73 C209.825 72.38253906 210.65 71.76507813 211.5 71.12890625 C217.96507505 66.35968178 224.53725593 61.89014982 231.5 57.875 C232.48613281 57.29020874 232.48613281 57.29020874 233.4921875 56.69360352 C237.44950283 54.4681184 240.45529081 53.26482645 245 54 C247.94543653 58.41815479 246.85792649 61.91372155 246 67 C245.1004745 71.02892737 244.08785014 75.01805796 243 79 C258.19941405 74.63763041 273.105416 69.08449804 287.64379883 62.86987305 C290.52644764 61.80564367 292.95223933 61.85824369 296 62 C295.80078125 64.35546875 295.80078125 64.35546875 295 67 C292.85546875 68.36328125 292.85546875 68.36328125 290.1875 69.3125 C289.31480469 69.63863281 288.44210937 69.96476562 287.54296875 70.30078125 C285 71 285 71 281 71 C281 71.66 281 72.32 281 73 C277.06769205 74.54925246 273.13498428 76.09748427 269.2019043 77.64477539 C267.86422899 78.17118815 266.52666296 78.69787868 265.18920898 79.22485352 C263.26574977 79.98266645 261.34189861 80.7394766 259.41796875 81.49609375 C258.26063232 81.95169678 257.1032959 82.4072998 255.91088867 82.87670898 C251.33108127 84.64402374 246.91907542 86.02913478 242 85 C239.76953125 83.375 239.76953125 83.375 238 81 C236.95890525 74.25052983 237.62317508 67.38771697 240 61 C227.3470109 65.25498749 217.61759609 72.94912535 208 82 C201.58110883 88 201.58110883 88 197 88 C195.25697343 82.52191651 196.34636228 79.6901613 198.9375 74.5625 C199.94125676 72.69903358 200.95671394 70.8416267 202 69 C201.12988281 69.58007812 201.12988281 69.58007812 200.2421875 70.171875 C198.61658376 71.25561083 196.98886096 72.33617272 195.359375 73.4140625 C193.58432974 74.60722206 191.84496253 75.85372335 190.125 77.125 C182.46008706 81.72394776 172.08275988 85.55966584 163 84 C159.85402183 81.92499312 158.30637232 80.44362636 157.51171875 76.69921875 C157.34090295 75.1006888 157.21507097 73.49653093 157.140625 71.890625 C157.20594451 69.98837483 157.20594451 69.98837483 156 69 C155.00033203 69.63615234 155.00033203 69.63615234 153.98046875 70.28515625 C152.03852675 71.52093752 150.09293478 72.75099417 148.14453125 73.9765625 C146.11402713 75.28314776 144.10859289 76.6299439 142.13671875 78.0234375 C136.98336583 81.59506824 133.23713492 83.79635472 126.875 83.5390625 C124.49574128 82.85502562 123.48858468 81.96307104 122 80 C122 79.01 122 78.02 122 77 C120.94941406 77.74765625 119.89882813 78.4953125 118.81640625 79.265625 C99.03159607 93.21070987 99.03159607 93.21070987 89 92 C86.9375 90.9375 86.9375 90.9375 86 89 C85.58570158 82.37122522 89.29732981 78.47119833 93.28515625 73.453125 C95.28646834 71.08904639 95.28646834 71.08904639 95 68 C93.88625 68.99 93.88625 68.99 92.75 70 C90 72 90 72 86 72 C85.70029297 72.83724609 85.70029297 72.83724609 85.39453125 73.69140625 C83.45407871 76.90375206 80.67624249 78.77140805 77.6875 80.9375 C73.45149602 84.04134436 69.64291174 87.18478838 66 91 C64.77216782 92.27212272 63.54316493 93.54311752 62.3125 94.8125 C61.44044922 95.71935547 61.44044922 95.71935547 60.55078125 96.64453125 C59 98 59 98 57 98 C57 98.66 57 99.32 57 100 C54 102 54 102 51.9375 101.75 C50 101 50 101 48 99 C48.35361598 94.4029922 49.41987574 90.31900631 51 86 C51.66 86 52.32 86 53 86 C53.103125 84.948125 53.20625 83.89625 53.3125 82.8125 C53.98563507 79.07966005 54.9843135 77.12890746 57 74 C56.28714844 74.45890625 55.57429687 74.9178125 54.83984375 75.390625 C53.40318359 76.31101563 53.40318359 76.31101563 51.9375 77.25 C50.43896484 78.22453125 50.43896484 78.22453125 48.91015625 79.21875 C46.56649192 80.65326132 44.39113328 81.69942243 41.875 82.75 C38.78960669 84.66335545 38.78960669 84.66335545 38.49609375 87.4765625 C38.37280442 89.42295999 38.27682478 91.37126342 38.20703125 93.3203125 C37.76209537 99.07929393 33.99408874 102.21011674 29.875 105.8125 C25.10787879 109.34863761 20.9151639 110.53597037 15 110 C12.28771165 109.29608488 10.46884994 108.41827549 8 107 C6.55569145 104.11138291 6.62311494 102.20352299 7 99 C10.66211093 94.74384436 14.94229003 91.86571516 19.625 88.875 C20.95264021 88.02151701 22.27823875 87.16484794 23.6015625 86.3046875 C24.18244629 85.93327637 24.76333008 85.56186523 25.36181641 85.17919922 C27.33601302 83.82477884 27.33601302 83.82477884 30 81 C27.69 76.71 25.38 72.42 23 68 C22.01 68.99 21.02 69.98 20 71 C18.824375 71.309375 17.64875 71.61875 16.4375 71.9375 C15.303125 72.288125 14.16875 72.63875 13 73 C12.31578473 74.32441371 11.65044242 75.65867719 11 77 C9.31103516 78.38452148 9.31103516 78.38452148 7.2890625 79.62109375 C6.54382324 80.07959717 5.79858398 80.53810059 5.03076172 81.01049805 C4.23686035 81.48140869 3.44295898 81.95231934 2.625 82.4375 C1.81949707 82.92323486 1.01399414 83.40896973 0.18408203 83.90942383 C-6.0046306 87.57244599 -12.21115674 90.59062621 -19 93 C-18.9071875 94.7015625 -18.9071875 94.7015625 -18.8125 96.4375 C-18.85927019 103.04378924 -20.32220316 108.82656344 -25.125 113.5625 C-28.57659223 116.16023923 -31.34540373 116.78781709 -35.625 116.43359375 C-47.72547983 114.2244601 -56.58748998 105.95496793 -63.75 96.3125 C-69.90969598 86.88470127 -74.57387908 76.32761548 -79 66 C-79.78375 66.99 -80.5675 67.98 -81.375 69 C-82.24125 69.99 -83.1075 70.98 -84 72 C-84.66 72 -85.32 72 -86 72 C-86.37705078 72.85851562 -86.37705078 72.85851562 -86.76171875 73.734375 C-88.16188349 76.29619061 -89.8136459 78.12502318 -91.8125 80.25 C-94.81468248 83.56367906 -97.25778687 86.79507776 -99.5234375 90.6328125 C-102.29796793 95.08086922 -105.43642714 99.28340903 -108.5 103.53515625 C-108.90734375 104.10121582 -109.3146875 104.66727539 -109.734375 105.25048828 C-110.61409119 106.46654658 -111.49997305 107.67815867 -112.390625 108.88623047 C-114.35367253 111.57202358 -115.94103908 113.82311723 -117 117 C-117.61875 117.598125 -118.2375 118.19625 -118.875 118.8125 C-121.30940716 121.31850737 -122.56190837 123.83619841 -124 127 C-125.65 126.67 -127.3 126.34 -129 126 C-130.76201835 122.19774989 -131.17963704 120.55887078 -129.875 116.5 C-126.58988744 110.36778989 -122.48250903 104.86029175 -118.3125 99.3125 C-117.78140625 98.60262939 -117.2503125 97.89275879 -116.703125 97.16137695 C-113.74485716 93.23142505 -110.70279238 89.42311524 -107.5 85.6875 C-101.67354167 78.68301458 -97.04120949 70.86817542 -92.29492188 63.11279297 C-91.23408848 61.38193848 -90.15820604 59.6603157 -89.078125 57.94140625 C-81.25363996 45.33753216 -73.61852209 29.19625698 -75 14 C-89.09677604 14.82922212 -100.97985936 21.81847682 -110.71875 31.78125 C-113 34 -113 34 -115 34 C-115.35964844 34.81984375 -115.35964844 34.81984375 -115.7265625 35.65625 C-117.30497839 38.56130991 -119.29555189 40.93005084 -121.375 43.5 C-125.34865851 48.69386554 -127.58656994 53.42706215 -129.34375 59.69921875 C-130 62 -130 62 -131 63 C-131.34229288 66.16620913 -131.25632099 67.60483847 -129.5 70.3125 C-129.005 70.869375 -128.51 71.42625 -128 72 C-129.98 72.495 -129.98 72.495 -132 73 C-138.51324985 65.3177053 -138.51324985 65.3177053 -138.4921875 58.8515625 C-137.27961492 51.8263404 -132.91411102 44.87116653 -129 39 C-128.01 39 -127.02 39 -126 39 C-125.7525 38.278125 -125.505 37.55625 -125.25 36.8125 C-123.87730408 33.72393418 -122.27646704 31.48988582 -120 29 C-119.34 29 -118.68 29 -118 29 C-117.731875 28.39929688 -117.46375 27.79859375 -117.1875 27.1796875 C-112.16851805 17.96721405 -98.60317856 11.87797121 -89 9 C-83.36450372 7.85789498 -78.25036433 7.24980916 -73 10 C-70.36843764 12.70268567 -68.25751289 15.13730666 -68 19 C-68.99 20.485 -68.99 20.485 -70 22 C-68.515 22.495 -68.515 22.495 -67 23 C-66.66020137 28.55004434 -67.67535481 31.99307189 -70 37 C-70.495 38.7634375 -70.495 38.7634375 -71 40.5625 C-71.99194274 43.97230316 -73.32463941 46.87773708 -75 50 C-73.02 50.495 -73.02 50.495 -71 51 C-70.95875 50.4225 -70.9175 49.845 -70.875 49.25 C-69.56599744 45.88399342 -66.99062016 44.8691376 -64 43 C-63.505 42.01 -63.505 42.01 -63 41 C-62.34 41 -61.68 41 -61 41 C-61 40.01 -61 39.02 -61 38 C-59.57421875 36.61328125 -59.57421875 36.61328125 -57.6875 35.3125 C-57.07261719 34.87550781 -56.45773438 34.43851563 -55.82421875 33.98828125 C-54 33 -54 33 -51 33 C-51 32.34 -51 31.68 -51 31 C-50.01 30.34 -49.02 29.68 -48 29 C-47.278125 28.2575 -46.55625 27.515 -45.8125 26.75 C-42.98507801 23.98540961 -40.04344475 21.74257798 -36.85546875 19.421875 C-34.84486132 17.95215203 -34.84486132 17.95215203 -32.75 15.6875 C-30.7943766 13.8017203 -29.57038768 13.62043841 -27 13 C-26.67 12.01 -26.34 11.02 -26 10 C-23.99609375 8.53515625 -23.99609375 8.53515625 -21.4375 7.0625 C-20.53773437 6.54429687 -19.63796875 6.02609375 -18.7109375 5.4921875 C-5.70137557 -1.66869529 -5.70137557 -1.66869529 0 0 Z M26.25 92.25 C23.33629105 94.34449223 20.43457972 96.37619041 17.375 98.25 C16.59125 98.8275 15.8075 99.405 15 100 C15 100.99 15 101.98 15 103 C21.06966268 103.41859743 24.20232338 103.14344799 29 99 C31.96788373 95.25109423 33 93.84230383 33 89 C30.04433095 89 28.62599261 90.53640533 26.25 92.25 Z " fill="#1051A3" transform="translate(138,1)"/>
<path d="M0 0 C1.8125 1.5625 1.8125 1.5625 3 3 C2.67 3.66 2.34 4.32 2 5 C0.948125 5.12375 -0.10375 5.2475 -1.1875 5.375 C-8.62533054 6.59431648 -12.99201801 11.79356651 -18 17 C-18.95654124 17.93932842 -19.91465386 18.87706197 -20.875 19.8125 C-23.03236412 21.81268909 -23.03236412 21.81268909 -24 24 C-16.83482473 19.53432964 -9.8510082 14.86827603 -2.9453125 10.015625 C2.55599834 6.25080219 2.55599834 6.25080219 5 5 C10.2 6.2 10.2 6.2 12 8 C12.07473231 14.69601504 9.92760835 20.09633401 7 26 C15.14614039 24.76796522 22.39067916 22.08963143 30 19 C37.60932084 15.91036857 44.85385961 13.23203478 53 12 C53 12.66 53 13.32 53 14 C51.68 14.33 50.36 14.66 49 15 C49 15.66 49 16.32 49 17 C47.19217025 18.17850314 45.32570852 19.26761406 43.4375 20.3125 C39.9384449 22.28276234 36.59003556 24.19946949 33.4375 26.6875 C26.05934645 32.18032685 16.05602346 34.49396492 7 34 C3.8060886 33.11280239 3.11209323 32.16813985 1.25 29.375 C-0.27358701 25.26131507 -0.08997109 22.36359803 0 18 C-0.92111572 18.6815918 -0.92111572 18.6815918 -1.86083984 19.37695312 C-4.68159501 21.44285832 -7.52742629 23.47124081 -10.375 25.5 C-11.82326172 26.57314453 -11.82326172 26.57314453 -13.30078125 27.66796875 C-18.89787962 31.6122327 -23.00314203 33.84111695 -29.92822266 33.65429688 C-32.75556634 32.76138136 -33.57942745 31.56509622 -35 29 C-35 27.68 -35 26.36 -35 25 C-37.31 25.33 -39.62 25.66 -42 26 C-44.29379749 22.55930376 -45 21.27709699 -45 17 C-57.53007813 23.81816864 -68.56213594 30.996573 -76.84228516 42.79736328 C-79.73614275 46.91204758 -79.73614275 46.91204758 -83 48 C-83.99 47.34 -84.98 46.68 -86 46 C-87.18100924 40.00268743 -83.93169395 35.59303272 -81 30.625 C-80.52304687 29.79355469 -80.04609375 28.96210937 -79.5546875 28.10546875 C-78.38108873 26.0634069 -77.19610873 24.02893125 -76 22 C-83.70677459 26.77427055 -83.70677459 26.77427055 -91.0625 32.0625 C-99.324811 38.39977772 -106.41017854 42.84046202 -117 42 C-119.0625 40.3125 -119.0625 40.3125 -120 38 C-119.66000712 33.26497727 -117.23150709 30.0790251 -114.5 26.375 C-111.24278994 21.97302542 -111.24278994 21.97302542 -109 17 C-109.47050781 17.3609375 -109.94101562 17.721875 -110.42578125 18.09375 C-111.04839844 18.5578125 -111.67101562 19.021875 -112.3125 19.5 C-112.92738281 19.9640625 -113.54226563 20.428125 -114.17578125 20.90625 C-116 22 -116 22 -119 22 C-119.495 23.485 -119.495 23.485 -120 25 C-121.94886585 26.60200888 -123.8951624 28.08993666 -125.9375 29.5625 C-130.3657636 32.84843695 -134.39652693 36.21872617 -138.25 40.1875 C-141.33348212 43.3512028 -144.43114115 46.40341948 -147.8125 49.25 C-148.49957031 49.83265625 -149.18664062 50.4153125 -149.89453125 51.015625 C-152 52 -152 52 -154.69921875 51.484375 C-157 50 -157 50 -157.98828125 47.84375 C-158.00412439 43.99914846 -156.70457428 40.95879238 -155.1875 37.5 C-154.77661133 36.52353516 -154.77661133 36.52353516 -154.35742188 35.52734375 C-153.5798841 33.68139076 -152.79023712 31.84055229 -152 30 C-151.32767342 28.33560846 -150.65835284 26.66996819 -150 25 C-151.98 25.66 -153.96 26.32 -156 27 C-156 27.66 -156 28.32 -156 29 C-157.61104962 29.79957998 -159.23948319 30.56423948 -160.875 31.3125 C-164.39342174 33.30890784 -165.74891348 34.19409326 -166.96875 38.109375 C-167.41373565 41.53308766 -167.41373565 41.53308766 -167.5234375 44.87890625 C-168.33781677 50.21242294 -171.81515223 53.1440583 -176 56.25 C-176.66 56.75015625 -177.32 57.2503125 -178 57.765625 C-182.11035994 60.30248777 -186.24555054 60.40291945 -191 60 C-193.53647321 58.86993703 -195.66155062 57.52715062 -198 56 C-198.36123189 53.0069358 -198.58767031 50.90658561 -198 48 C-193.99134681 43.13322534 -187.89463259 39.85452587 -182.5625 36.625 C-181.83095703 36.17511719 -181.09941406 35.72523437 -180.34570312 35.26171875 C-178.56714919 34.16901241 -176.78405049 33.08370894 -175 32 C-175.956581 30.22821947 -176.91532988 28.45760924 -177.875 26.6875 C-178.40867187 25.70136719 -178.94234375 24.71523437 -179.4921875 23.69921875 C-181.00722126 20.90413542 -181.00722126 20.90413542 -183 18 C-183.66 18.99 -184.32 19.98 -185 21 C-187.9178052 22.42149484 -189.73204297 23 -193 23 C-193 23.99 -193 24.98 -193 26 C-195.01576507 27.58075194 -196.95233174 28.91648632 -199.125 30.25 C-200.06811035 30.8378125 -200.06811035 30.8378125 -201.03027344 31.4375 C-221.45102937 43.96033291 -221.45102937 43.96033291 -231 43 C-234.07598929 41.78242091 -235.4211173 40.9730156 -237.1015625 38.1484375 C-238.9313273 33.77291298 -238.65500735 29.19576326 -237.3125 24.6953125 C-234.59196758 18.14336359 -230.42527468 11.65224331 -225 7 C-221.9375 6.6875 -221.9375 6.6875 -219 7 C-217 9 -217 9 -217 12 C-218.32 12 -219.64 12 -221 12 C-221.26941406 12.72703125 -221.53882813 13.4540625 -221.81640625 14.203125 C-222.97479284 16.94043457 -224.3340045 19.25295357 -225.9375 21.75 C-228.75264542 26.33407543 -230.57541977 30.82652443 -232 36 C-218.57309042 32.68630757 -207.46271591 25.77437494 -195.74438477 18.6340332 C-192.4618743 16.67959476 -189.11368261 14.872698 -185.72485352 13.11010742 C-183.32148159 11.56330882 -182.38972193 9.44855768 -181 7 C-176.2003389 4.48589181 -171.13556693 4.44081459 -166 6 C-163.4375 8.5625 -163.4375 8.5625 -162 11 C-164 13 -164 13 -166.05859375 13.125 C-167.64193426 13.04180313 -169.22526763 12.95847024 -170.80859375 12.875 C-173.29556263 12.83129684 -173.29556263 12.83129684 -176 15 C-175.59220433 18.36431427 -174.64297543 20.80687365 -172.9375 23.6875 C-171 27 -171 27 -171 29 C-170.30777344 28.64808594 -169.61554688 28.29617187 -168.90234375 27.93359375 C-162.95277042 24.93137163 -156.97352986 22.01138654 -150.9375 19.1875 C-150.29482178 18.88577881 -149.65214355 18.58405762 -148.98999023 18.27319336 C-143.65255363 15.78919702 -139.90886555 14.88851197 -134 15 C-134 15.99 -134 16.98 -134 18 C-135.14082031 18.33451172 -135.14082031 18.33451172 -136.3046875 18.67578125 C-139.68896886 20.3384934 -140.44185128 21.85339393 -142.125 25.1875 C-142.87523437 26.65703125 -142.87523437 26.65703125 -143.640625 28.15625 C-145.1945514 31.40699259 -146.66191145 34.65477862 -148 38 C-144.59586453 35.11714452 -141.2135702 32.22535049 -137.95703125 29.17578125 C-131.32888922 23.07371571 -124.43475407 18.15015818 -116.5625 13.75 C-115.72243408 13.27216064 -114.88236816 12.79432129 -114.0168457 12.30200195 C-109.16242174 9.69172736 -105.64780269 8.34311271 -100 9 C-99.01 9.33 -98.02 9.66 -97 10 C-96.12587314 13.41704135 -95.67872775 15.3067283 -97.1875 18.5625 C-97.785625 19.366875 -98.38375 20.17125 -99 21 C-99.9590625 22.3303125 -99.9590625 22.3303125 -100.9375 23.6875 C-103 26 -103 26 -105 26.875 C-108.25658425 28.70682864 -109.30408741 31.72931143 -111 35 C-103.01603836 31.47635212 -96.3169067 27.2139208 -89.38330078 21.98168945 C-78.39152266 13.72146937 -78.39152266 13.72146937 -72.8515625 12.54296875 C-70.68743166 12.14267206 -70.68743166 12.14267206 -69.5625 9.4375 C-69.046875 8.633125 -68.53125 7.82875 -68 7 C-65.4375 6.5625 -65.4375 6.5625 -63 7 C-62.01 7.99 -62.01 7.99 -61 9 C-61.39286288 12.66672026 -63.35493777 15.75421684 -65 19 C-64.07058594 18.45730469 -63.14117188 17.91460937 -62.18359375 17.35546875 C-60.93501468 16.63260718 -59.68631001 15.90996253 -58.4375 15.1875 C-57.82841797 14.83107422 -57.21933594 14.47464844 -56.59179688 14.10742188 C-44.32447403 7.03261664 -44.32447403 7.03261664 -37 8 C-34.5625 10 -34.5625 10 -33 12 C-33.66 13.65 -34.32 15.3 -35 17 C-29.24245013 14.15889128 -24.09931381 11.33630569 -19.4375 6.875 C-13.97747863 1.76787049 -7.58598916 -2.25149088 0 0 Z M-178.125 41.6875 C-181.44779354 44.13519016 -184.78097889 46.54569501 -188.1875 48.875 C-189.115625 49.57625 -190.04375 50.2775 -191 51 C-191 51.66 -191 52.32 -191 53 C-184.88500861 53.4291222 -180.82354197 52.96873707 -176 49 C-173.45781386 45.93633978 -172.09618804 44.10616247 -171.75 40.125 C-171.87375 39.073125 -171.87375 39.073125 -172 38 C-174.16094784 38 -176.50119988 40.49066639 -178.125 41.6875 Z " fill="#1052A3" transform="translate(796,51)"/>
<path d="M0 0 C6.49593071 0.49025892 6.49593071 0.49025892 8.71003723 2.72927856 C12.61481362 9.60285637 9.54707366 19.46767533 7.76953125 26.6953125 C7.53854736 27.67897797 7.30756348 28.66264343 7.06958008 29.67611694 C6.57923846 31.75951423 6.08358256 33.84166714 5.58291626 35.92260742 C4.29185855 41.28915255 3.03882604 46.66459205 1.78125 52.0390625 C1.53566849 53.08382751 1.29008698 54.12859253 1.0370636 55.20501709 C-1.58880966 66.41750535 -3.88339401 77.68025086 -6 89 C-5.41992188 87.94941406 -4.83984375 86.89882812 -4.2421875 85.81640625 C-0.53364264 79.13831796 3.1777252 72.56608791 7.51171875 66.26953125 C9.26328101 63.59851374 10.81330895 60.84904678 12.375 58.0625 C16.09559329 51.44158678 20.02815897 44.95253284 24.00054932 38.48043823 C25.03611747 36.79299008 26.06863632 35.1036718 27.10107422 33.41430664 C30.71217102 27.54991723 34.43214422 21.81861847 38.45483398 16.22753906 C40.08441668 13.8783034 41.55406851 11.46571085 43 9 C44.43836751 9.11458693 45.87570966 9.24209116 47.3125 9.375 C48.11300781 9.44460938 48.91351562 9.51421875 49.73828125 9.5859375 C52 10 52 10 55 12 C55.77101073 17.15984101 54.14651711 20.14342569 51.5 24.5 C50.76015379 25.7407287 50.02057791 26.98161863 49.28125 28.22265625 C48.90097656 28.85059082 48.52070312 29.47852539 48.12890625 30.12548828 C44.97974841 35.35456136 41.9985426 40.6836101 39 46 C38.65936523 46.59925293 38.31873047 47.19850586 37.96777344 47.81591797 C32.64122396 57.23884957 28.54679268 66.7761014 25 77 C24.34 77 23.68 77 23 77 C22.97421875 77.68964844 22.9484375 78.37929687 22.921875 79.08984375 C22.62796845 83.95934089 22.2186867 88.08342426 20.0625 92.5 C15.19417907 102.51886336 15.4867655 114.07339541 15 125 C12 124 12 124 10.8359375 122.41796875 C2.32837095 97.80963374 21.82327707 63.09371588 32 42 C33.31795602 39.32509207 34.65380043 36.66087222 36 34 C29.22435655 44.23814661 22.78381906 54.62504665 16.58422852 65.22241211 C13.24024053 70.93149966 9.82164878 76.55438762 6.171875 82.07421875 C4.84483454 84.09379935 4.84483454 84.09379935 4 87 C3.34 87 2.68 87 2 87 C1.7421875 87.87140625 1.484375 88.7428125 1.21875 89.640625 C-0.01583856 93.04365758 -1.52712692 95.72381333 -3.5 98.75 C-4.1084375 99.69359375 -4.716875 100.6371875 -5.34375 101.609375 C-7 104 -7 104 -9 106 C-10.32 106 -11.64 106 -13 106 C-13 105.34 -13 104.68 -13 104 C-13.99 103.67 -14.98 103.34 -16 103 C-14.78907886 91.277408 -12.69243223 79.87191126 -10.22363281 68.35522461 C-9.62679379 65.57086833 -9.03911912 62.78470369 -8.453125 59.99804688 C-6.48901668 50.70473925 -4.45697707 41.43458489 -2.18692017 32.21058655 C-1.50245136 29.38781851 -1 26.91829251 -1 24 C-9.84586218 36.6656663 -16.88619837 50.27412888 -23.5234375 64.1953125 C-26.38819601 70.1218764 -29.53531195 75.45507873 -33.421875 80.76953125 C-35.16718148 83.13881013 -35.16718148 83.13881013 -36.875 86.5 C-40.4848524 93.063368 -46.20996692 99.72096228 -53 103 C-55.45703125 103.29296875 -55.45703125 103.29296875 -57.8125 103.1875 C-58.60269531 103.16042969 -59.39289063 103.13335937 -60.20703125 103.10546875 C-60.79871094 103.07066406 -61.39039063 103.03585938 -62 103 C-61 100 -61 100 -59.36328125 99.078125 C-58.34814453 98.66820313 -58.34814453 98.66820313 -57.3125 98.25 C-49.99344864 94.78582267 -46.19059749 87.98851532 -41.73046875 81.48046875 C-40.15372092 79.22034489 -38.50685585 77.04736052 -36.8125 74.875 C-33.96568573 71.13521717 -31.97712371 67.2584203 -30 63 C-29.34 63 -28.68 63 -28 63 C-27.89059082 62.44763672 -27.78118164 61.89527344 -27.66845703 61.32617188 C-26.87519478 58.56568878 -25.67935214 56.30407967 -24.3046875 53.78125 C-23.75651367 52.77151123 -23.20833984 51.76177246 -22.64355469 50.72143555 C-22.05993164 49.65836182 -21.47630859 48.59528809 -20.875 47.5 C-20.2862207 46.41952393 -19.69744141 45.33904785 -19.09082031 44.22583008 C-15.5620487 37.77312182 -11.97403103 31.37036326 -8.171875 25.07421875 C-6.86631027 22.91781018 -6.86631027 22.91781018 -6 20 C-5.34 20 -4.68 20 -4 20 C-3.731875 19.13375 -3.46375 18.2675 -3.1875 17.375 C-2 14 -2 14 -0.3125 11.125 C1.45705307 6.91177842 0.84301053 4.44496462 0 0 Z M38 29 C39 31 39 31 39 31 Z " fill="#1052A3" transform="translate(522,1)"/>
<path d="M0 0 C2.625 1.6875 2.625 1.6875 4 4 C3.57078309 7.75564794 2.31853503 10.76872149 0.625 14.125 C0.20476562 14.97320312 -0.21546875 15.82140625 -0.6484375 16.6953125 C-1.92349534 18.86954408 -3.05476508 20.40844415 -5 22 C-5.66 22 -6.32 22 -7 22 C-7.226875 22.5775 -7.45375 23.155 -7.6875 23.75 C-9.34726345 26.59530878 -11.42066667 27.93653334 -14 30 C-15.10319957 31.23250226 -16.18475089 32.48455326 -17.25 33.75 C-23.51555079 41.00204177 -30.71916812 46.65227958 -38.5 52.1875 C-39.1997998 52.68668945 -39.89959961 53.18587891 -40.62060547 53.70019531 C-53.91443805 63 -53.91443805 63 -58 63 C-58 63.66 -58 64.32 -58 65 C-59.98 64.67 -61.96 64.34 -64 64 C-63.67 63.34 -63.34 62.68 -63 62 C-62.34 62 -61.68 62 -61 62 C-61.33 60.68 -61.66 59.36 -62 58 C-61.071875 57.484375 -60.14375 56.96875 -59.1875 56.4375 C-55.51114264 54.01248493 -54.53464679 51.09239143 -53 47 C-51.04498083 43.90455298 -50.54075407 43.18025136 -47 42 C-46.03355378 40.10043329 -45.07468453 38.19624845 -44.171875 36.265625 C-41.65228084 31.39440963 -38.12883017 26.63650354 -34 23 C-33.34 23 -32.68 23 -32 23 C-31.73058594 22.41605469 -31.46117187 21.83210938 -31.18359375 21.23046875 C-25.54432852 10.60333856 -12.5230377 -1.82768658 0 0 Z M-5 3 C-12.14195218 9.53227333 -19.22939894 16.07931172 -26 23 C-26.53496094 23.50273437 -27.06992187 24.00546875 -27.62109375 24.5234375 C-29.24176733 26.10728714 -29.24176733 26.10728714 -30.4375 29.0625 C-32.05887675 32.11068828 -32.81573596 32.90197792 -36 34 C-36 34.66 -36 35.32 -36 36 C-37.98 36.495 -37.98 36.495 -40 37 C-39.34 37 -38.68 37 -38 37 C-38.99 39.475 -38.99 39.475 -40 42 C-40.66 42 -41.32 42 -42 42 C-42 42.66 -42 43.32 -42 44 C-37.64334798 42.57918195 -35.00113025 40.44390457 -31.6875 37.3125 C-28.46872917 34.30055782 -25.25072246 31.33452447 -21.875 28.5 C-15.29499527 22.75769608 -7.17126978 15.34736528 -4 7 C-4.3120803 4.82062045 -4.3120803 4.82062045 -5 3 Z M-45 42 C-44 44 -44 44 -44 44 Z " fill="#0F50A5" transform="translate(719,0)"/>
<path d="M0 0 C2.5625 1.5 2.5625 1.5 4 3 C3.54364697 15.54970837 -5.94239466 23.48123517 -14.375 31.8125 C-14.90678864 32.34124725 -15.43857727 32.86999451 -15.98648071 33.4147644 C-45.82370571 63 -45.82370571 63 -58 63 C-58 63.66 -58 64.32 -58 65 C-58.66 65 -59.32 65 -60 65 C-60.8125 61.75 -60.8125 61.75 -61 58 C-58.8125 56.0625 -58.8125 56.0625 -56 54 C-54.43958895 51.43078818 -53.19691863 48.75491887 -52 46 C-51.34 46 -50.68 46 -50 46 C-49.67 45.01 -49.34 44.02 -49 43 C-48.360625 42.54625 -47.72125 42.0925 -47.0625 41.625 C-44.50995239 39.61390188 -44.16448616 38.01396417 -43 35 C-41.4871153 32.54983993 -39.92750979 30.14373685 -38 28 C-37.34 28 -36.68 28 -36 28 C-35.7525 27.443125 -35.505 26.88625 -35.25 26.3125 C-33.77075182 23.57589087 -32.06532561 21.32349131 -30 19 C-29.34 19 -28.68 19 -28 19 C-27.75507813 18.43023438 -27.51015625 17.86046875 -27.2578125 17.2734375 C-24.7697234 12.77633235 -20.73028581 9.47240431 -17 6 C-16.32195312 5.36707031 -15.64390625 4.73414063 -14.9453125 4.08203125 C-10.20196898 0.07209627 -6.18654152 -1.27620208 0 0 Z M-5 3 C-5.33 3.99 -5.66 4.98 -6 6 C-7.30954583 6.71225833 -8.64734825 7.37345754 -10 8 C-15.1172654 11.90389319 -19.40689727 16.41513726 -23.45703125 21.3984375 C-25 23 -25 23 -28 24 C-28.61760154 25.817821 -28.61760154 25.817821 -28.875 27.9375 C-29.328125 30.12109375 -29.328125 30.12109375 -30 32 C-32.625 33.5 -32.625 33.5 -35 34 C-35 34.66 -35 35.32 -35 36 C-36.98 36.495 -36.98 36.495 -39 37 C-39.144375 37.598125 -39.28875 38.19625 -39.4375 38.8125 C-39.8872439 40.56150404 -40.42892341 42.28677023 -41 44 C-37.01893888 42.32834084 -33.97725678 39.607677 -30.75 36.8125 C-30.17008301 36.31274658 -29.59016602 35.81299316 -28.99267578 35.2980957 C-27.84145789 34.30567202 -26.69120133 33.31213191 -25.54199219 32.31738281 C-24.3011881 31.2573165 -23.03346907 30.22879588 -21.7578125 29.2109375 C-14.71783694 23.51469172 -6.28977273 14.52693966 -3 6 C-3 5.01 -3 4.02 -3 3 C-3.66 3 -4.32 3 -5 3 Z M-48 47 C-48 47.66 -48 48.32 -48 49 C-47.34 48.67 -46.68 48.34 -46 48 C-46.66 47.67 -47.32 47.34 -48 47 Z " fill="#1051A4" transform="translate(266,0)"/>
<path d="M0 0 C1.11375 0.3403125 1.11375 0.3403125 2.25 0.6875 C2.58 2.3375 2.91 3.9875 3.25 5.6875 C0.25 7.6875 0.25 7.6875 -2.9375 7.3125 C-3.865625 7.10625 -4.79375 6.9 -5.75 6.6875 C-6.08 5.3675 -6.41 4.0475 -6.75 2.6875 C-4.29511132 0.41445492 -3.41240272 -0.38777304 0 0 Z " fill="#1054A1" transform="translate(583.75,40.3125)"/>
<path d="M0 0 C0.763125 0.20625 1.52625 0.4125 2.3125 0.625 C2.6425 2.275 2.9725 3.925 3.3125 5.625 C0.3125 7.625 0.3125 7.625 -2.375 7.25 C-3.138125 7.04375 -3.90125 6.8375 -4.6875 6.625 C-5.0175 4.975 -5.3475 3.325 -5.6875 1.625 C-2.6875 -0.375 -2.6875 -0.375 0 0 Z " fill="#1053A1" transform="translate(130.6875,40.375)"/>
<path d="M0 0 C0.66 0 1.32 0 2 0 C2 0.66 2 1.32 2 2 C1.34 2 0.68 2 0 2 C0 1.34 0 0.68 0 0 Z " fill="#1153A0" transform="translate(203,62)"/>
<path d="" fill="#0F53A2" transform="translate(0,0)"/>
</svg>
