<svg xmlns="http://www.w3.org/2000/svg" version="1.0" width="453.000000pt" height="136.000000pt" viewBox="0 0 453.000000 136.000000" preserveAspectRatio="xMidYMid meet">

<g transform="translate(0.000000,136.000000) scale(0.100000,-0.100000)" fill="#0469b7" stroke="none">
<path d="M1530 873 c1 -79 30 -257 44 -272 14 -13 17 -10 32 25 15 36 17 37 25 18 4 -12 12 -25 17 -28 15 -9 42 4 42 20 0 7 -6 11 -14 8 -10 -4 -18 7 -27 35 -7 23 -16 41 -21 41 -4 0 -15 -18 -24 -40 -9 -23 -18 -39 -20 -37 -7 6 -33 211 -28 219 7 12 -6 48 -17 48 -5 0 -9 -17 -9 -37z" fill="#0469b7"/>
<path d="M2920 868 c1 -78 30 -252 45 -267 13 -13 16 -10 31 25 15 36 17 37 25 18 4 -12 12 -25 17 -28 14 -9 39 3 46 20 4 12 1 14 -14 9 -16 -5 -21 1 -30 34 -6 23 -15 41 -20 41 -6 0 -17 -18 -26 -40 -9 -23 -18 -39 -20 -37 -7 6 -33 211 -28 219 7 12 -6 48 -17 48 -5 0 -9 -19 -9 -42z" fill="#0469b7"/>
<path d="M2560 833 c0 -54 -28 -145 -43 -140 -7 2 -29 29 -50 60 -21 31 -42 57 -47 57 -6 0 -10 -25 -10 -56 0 -61 26 -164 41 -164 11 0 11 6 0 50 -5 19 -12 50 -15 69 l-6 34 38 -43 c44 -50 65 -49 87 2 8 18 14 30 15 26 0 -4 7 -40 15 -80 18 -89 43 -158 57 -158 12 0 9 17 -22 115 -12 39 -24 112 -28 164 -5 62 -11 96 -19 99 -9 2 -13 -9 -13 -35z" fill="#0469b7"/>
<path d="M1030 761 c0 -41 8 -95 20 -133 11 -34 20 -71 20 -80 0 -10 5 -18 11 -18 12 0 8 58 -6 92 -6 15 -3 15 41 2 52 -16 124 -19 124 -5 0 4 -25 11 -56 15 -63 7 -94 20 -94 39 0 7 16 37 35 67 38 61 41 70 21 70 -7 0 -28 -27 -45 -60 -18 -33 -37 -58 -42 -55 -5 4 -9 33 -9 65 0 32 -4 62 -10 65 -6 4 -10 -20 -10 -64z" fill="#0469b7"/>
<path d="M1260 790 c0 -23 22 -27 39 -6 9 11 8 15 -5 20 -26 10 -34 7 -34 -14z" fill="#0469b7"/>
<path d="M2650 790 c0 -23 22 -27 39 -6 9 11 8 15 -5 20 -26 10 -34 7 -34 -14z" fill="#0469b7"/>
<path d="M1398 729 c-37 -21 -11 -80 45 -103 20 -8 -14 -26 -51 -26 -22 0 -31 -4 -26 -11 9 -16 83 -4 103 16 15 15 13 19 -28 54 -48 41 -48 61 0 61 18 0 28 4 24 10 -8 13 -45 12 -67 -1z" fill="#0469b7"/>
<path d="M1760 708 c-22 -36 -27 -112 -8 -124 6 -4 19 3 29 15 17 21 20 21 35 7 37 -38 106 -27 144 22 34 42 22 48 -18 9 -42 -41 -79 -48 -105 -19 -10 10 -17 30 -17 43 0 28 -21 79 -33 79 -4 0 -16 -15 -27 -32z m19 -70 c-18 -32 -24 -1 -8 38 12 27 13 27 16 7 3 -12 -1 -32 -8 -45z" fill="#0469b7"/>
<path d="M1998 734 c-10 -9 -9 -99 1 -134 l7 -24 17 24 c9 13 17 32 17 42 0 24 17 23 25 -2 8 -24 41 -44 61 -36 23 9 16 26 -11 26 -27 0 -45 25 -45 64 0 44 -26 30 -41 -21 l-14 -48 -5 58 c-3 33 -8 55 -12 51z" fill="#0469b7"/>
<path d="M2788 729 c-37 -21 -11 -80 45 -103 20 -8 -14 -26 -51 -26 -22 0 -31 -4 -26 -11 9 -16 83 -4 103 16 15 15 13 19 -28 54 -48 41 -48 61 0 61 18 0 28 4 24 10 -8 13 -45 12 -67 -1z" fill="#0469b7"/>
<path d="M3320 708 c-22 -36 -27 -112 -8 -124 6 -4 19 3 29 15 17 21 20 21 35 7 37 -38 106 -27 144 22 34 42 22 48 -18 9 -42 -41 -79 -48 -105 -19 -10 10 -17 30 -17 43 0 28 -21 79 -33 79 -4 0 -16 -15 -27 -32z m19 -70 c-18 -32 -24 -1 -8 38 12 27 13 27 16 7 3 -12 -1 -32 -8 -45z" fill="#0469b7"/>
<path d="M3136 715 c-9 -23 -8 -44 5 -87 13 -49 34 -51 25 -3 -11 56 0 75 40 75 19 0 34 5 34 11 0 8 -14 10 -39 6 -22 -2 -43 -1 -49 5 -6 6 -12 3 -16 -7z" fill="#0469b7"/>
<path d="M1277 694 c-8 -13 22 -114 34 -114 5 0 9 10 9 23 -1 30 -35 104 -43 91z" fill="#0469b7"/>
<path d="M2667 694 c-8 -13 22 -114 34 -114 5 0 9 10 9 23 -1 30 -35 104 -43 91z" fill="#0469b7"/>
</g>
</svg>